<?xml version="1.0" standalone="no"?>
<!DOCTYPE svg PUBLIC "-//W3C//DTD SVG 20010904//EN"
 "http://www.w3.org/TR/2001/REC-SVG-20010904/DTD/svg10.dtd">
<svg version="1.0" xmlns="http://www.w3.org/2000/svg"
 width="3000.000000pt" height="2000.000000pt" viewBox="0 0 3000.000000 2000.000000"
 preserveAspectRatio="xMidYMid meet">

<g transform="translate(0.000000,2000.000000) scale(0.100000,-0.100000)"
fill="#000000" stroke="none">
<path d="M13545 16893 c-359 -23 -767 -93 -1075 -184 -236 -70 -585 -225 -759
-336 l-64 -40 204 -6 c440 -11 734 -96 1587 -458 536 -228 830 -342 1167 -452
350 -114 729 -211 1034 -263 182 -32 491 -43 651 -25 129 15 313 53 403 84
l68 22 -81 119 c-169 248 -304 409 -516 617 -565 553 -1252 858 -2069 919
-128 9 -428 11 -550 3z m343 -711 c23 -23 59 -46 81 -53 23 -7 41 -15 41 -19
0 -4 -18 -12 -39 -19 -52 -15 -124 -88 -147 -146 l-17 -46 -29 60 c-32 67 -84
116 -140 133 -21 6 -38 14 -38 18 0 4 18 12 41 19 53 16 121 84 144 145 l19
48 22 -50 c12 -27 40 -68 62 -90z"/>
<path d="M23080 14012 c0 -58 23 -472 36 -652 96 -1348 433 -2369 1173 -3554
207 -331 369 -641 482 -923 29 -73 56 -133 59 -133 3 0 32 73 64 163 244 677
361 1118 433 1637 25 182 25 725 0 895 -48 319 -137 607 -273 876 -357 713
-1102 1371 -1901 1679 -64 25 -73 26 -73 12z"/>
<path d="M18603 13905 c-79 -22 -131 -52 -193 -110 -53 -51 -57 -53 -100 -48
-60 7 -123 -11 -163 -47 -36 -31 -55 -90 -60 -180 l-2 -45 -696 -5 c-679 -5
-697 -6 -719 -25 -53 -48 -50 17 -50 -1292 0 -1190 1 -1219 20 -1250 37 -61
51 -64 336 -61 l256 3 63 230 c70 257 121 435 127 440 4 5 355 -78 362 -86 3
-3 -30 -135 -74 -293 -44 -158 -80 -290 -80 -292 0 -2 423 -4 941 -4 l941 0
-98 52 c-54 28 -173 97 -264 153 -91 56 -257 153 -370 216 l-204 114 -121 5
c-78 3 -128 10 -137 18 -27 22 -45 229 -25 285 12 34 36 35 143 4 49 -15 89
-21 101 -16 21 8 33 50 33 121 0 40 23 71 49 66 13 -3 17 -21 23 -88 11 -140
21 -158 114 -207 43 -22 205 -87 359 -143 154 -56 288 -107 298 -112 10 -5 20
-8 22 -6 2 2 -7 37 -20 78 -13 41 -20 78 -17 81 4 4 79 27 167 53 88 26 168
49 177 52 14 4 25 -20 62 -135 80 -243 100 -340 101 -473 l0 -118 310 0 c348
0 364 3 397 70 17 33 18 113 18 1243 0 1330 3 1257 -62 1297 -32 19 -49 20
-655 20 -343 0 -623 2 -623 4 0 2 11 24 25 47 43 75 30 125 -38 154 -46 19
-100 19 -163 0 -27 -8 -56 -15 -64 -15 -9 0 -30 26 -47 58 -73 132 -158 192
-281 198 -40 2 -88 -2 -119 -11z m-62 -594 c105 -41 222 -63 313 -59 l75 3 5
-30 c3 -16 8 -61 12 -100 10 -106 19 -107 34 -4 15 102 31 129 78 129 64 0 96
-85 68 -181 -21 -75 -67 -133 -124 -159 l-48 -22 -24 -96 c-28 -111 -51 -143
-121 -173 l-49 -21 0 -58 c0 -38 4 -60 13 -63 8 -2 -3 -32 -36 -93 -26 -49
-71 -135 -99 -191 -28 -57 -54 -103 -57 -103 -4 0 -36 55 -70 123 -35 67 -81
153 -102 190 -44 79 -44 77 -24 77 12 0 15 14 15 63 0 63 0 63 -34 75 -76 28
-91 53 -136 230 -9 37 -17 45 -61 67 -52 27 -97 84 -120 153 -16 47 -7 137 16
162 21 23 86 28 103 8 5 -7 15 -45 22 -85 20 -120 28 -114 104 76 l67 169 52
-28 c29 -16 86 -42 128 -59z"/>
<path d="M11605 13609 c-105 -26 -272 -106 -328 -158 -50 -47 -85 -118 -94
-192 l-6 -49 -594 0 c-511 0 -598 -2 -623 -15 -63 -33 -60 34 -60 -1180 l0
-1105 34 -38 34 -37 286 -3 c271 -3 286 -2 286 15 0 42 118 478 155 575 5 13
-2 17 -34 23 -29 5 -41 12 -41 23 0 36 73 292 111 389 44 112 105 212 147 242
40 28 323 138 437 170 l99 28 -3 45 c-3 51 7 58 87 58 58 0 55 23 -7 55 -43
21 -52 31 -69 77 -11 29 -25 77 -32 106 -10 43 -18 55 -44 68 -44 23 -85 63
-107 106 -56 109 -19 223 67 204 l29 -7 0 53 0 53 90 18 c109 23 426 28 519 9
33 -6 61 -13 62 -15 2 -1 11 -71 21 -154 9 -83 20 -150 24 -148 3 2 11 42 18
89 12 78 15 85 41 96 50 21 100 -25 100 -90 0 -87 -59 -185 -129 -216 -37 -16
-40 -20 -61 -103 -29 -108 -38 -122 -100 -151 -63 -30 -66 -50 -6 -50 67 0 76
-6 76 -54 l0 -43 58 -13 c105 -23 286 -91 367 -137 89 -51 213 -136 292 -200
l52 -42 5 52 c29 258 45 462 40 507 -3 31 -21 89 -41 132 -40 89 -50 170 -21
176 10 2 25 -12 41 -39 30 -50 28 -55 59 140 19 124 26 145 45 158 20 14 27
13 60 -4 21 -11 50 -23 65 -27 49 -11 57 -37 59 -191 2 -139 2 -140 -31 -208
l-32 -67 10 -128 c6 -70 22 -208 36 -307 57 -411 60 -700 8 -789 -16 -28 -25
-32 -87 -39 -45 -6 -82 -5 -105 2 -39 12 -116 68 -269 196 l-104 87 -32 -38
-32 -38 -43 58 c-23 31 -44 55 -46 53 -2 -2 -11 -100 -20 -218 -18 -238 -14
-370 13 -474 l19 -70 535 -3 536 -2 34 23 c18 12 39 34 46 47 10 20 13 265 13
1123 0 1000 -1 1101 -16 1127 -37 62 -13 60 -673 60 l-601 0 0 53 c0 80 -38
152 -92 177 -24 11 -64 20 -90 20 -42 0 -47 2 -57 30 -32 93 -111 140 -231
139 -41 0 -111 -9 -155 -20z"/>
<path d="M8555 12349 c-140 -48 -328 -94 -675 -164 -595 -121 -863 -200 -1163
-344 -410 -197 -775 -520 -1051 -931 -400 -593 -444 -1591 -114 -2610 36 -111
115 -331 122 -338 2 -1 42 22 89 52 116 72 243 133 412 195 191 71 495 223
640 320 642 427 1088 1068 1405 2021 145 433 252 858 385 1525 30 154 57 288
59 298 2 9 3 16 3 16 -1 -1 -51 -19 -112 -40z m-1133 -766 c23 -24 62 -50 86
-60 l44 -17 -48 -21 c-63 -28 -120 -87 -142 -148 l-19 -49 -17 45 c-25 67 -78
122 -141 148 l-56 23 59 26 c65 30 113 81 139 148 l16 44 18 -48 c10 -26 38
-67 61 -91z"/>
<path d="M14755 12104 c-27 -2 -115 -8 -195 -14 -283 -20 -429 -79 -481 -195
-21 -45 -25 -129 -8 -172 9 -24 7 -30 -17 -47 -104 -76 -87 -385 41 -742 48
-134 191 -441 201 -432 3 3 16 111 29 239 21 211 22 235 8 244 -134 86 -192
215 -149 329 21 55 52 76 111 76 53 0 56 -2 151 -132 36 -49 66 -88 67 -88 1
0 0 97 -1 215 -2 118 -2 215 0 215 1 0 103 -22 226 -49 122 -26 222 -46 222
-44 0 2 -19 24 -41 48 -23 25 -38 45 -33 45 8 0 378 -97 512 -134 48 -13 53
-13 61 2 18 35 51 203 63 320 11 114 11 124 -8 169 -14 35 -32 56 -67 80 -78
53 -160 66 -417 68 -124 1 -247 1 -275 -1z"/>
<path d="M12733 11872 c-22 -29 -22 -30 -3 -47 18 -16 19 -16 25 8 4 14 5 35
3 47 -3 21 -4 21 -25 -8z"/>
<path d="M11025 11346 c-2 -6 -20 -74 -40 -151 -20 -77 -50 -186 -66 -241 -16
-56 -29 -107 -29 -113 0 -7 35 -11 103 -11 l103 0 17 78 c19 83 21 143 11 318
l-7 111 -44 10 c-32 8 -46 7 -48 -1z"/>
<path d="M19910 10568 c-55 -100 -65 -139 -99 -412 -17 -132 -32 -241 -34
-243 -2 -2 -7 36 -11 84 -9 126 -77 445 -91 431 -2 -2 1 -24 6 -48 31 -137 50
-319 55 -520 l4 -215 -34 130 c-49 186 -108 352 -175 490 -52 109 -120 229
-121 214 0 -3 20 -48 44 -100 44 -94 127 -310 140 -361 8 -35 -3 -36 -34 -3
-13 14 -27 25 -30 25 -4 0 -22 -32 -39 -72 l-33 -72 11 -140 c6 -78 13 -159
16 -181 3 -22 -18 45 -45 148 -65 250 -76 282 -112 317 -33 34 -88 60 -123 60
-26 0 -26 -4 -46 -185 -11 -102 -8 -247 7 -305 3 -14 -19 20 -49 75 -129 238
-257 402 -398 508 -58 44 -57 31 2 -30 126 -132 246 -309 344 -508 59 -122
140 -323 133 -331 -2 -1 -32 39 -66 91 -68 103 -197 245 -271 300 -53 38 -162
95 -183 95 -7 0 14 -18 47 -39 130 -84 251 -207 350 -356 47 -72 105 -176 105
-190 0 -3 -18 -5 -39 -5 -55 0 -93 -33 -93 -80 0 -19 30 -192 65 -385 36 -192
73 -397 83 -454 28 -159 -9 -145 396 -149 384 -4 422 -1 442 31 8 12 33 121
55 242 22 121 61 332 86 470 37 202 44 254 35 276 -13 30 -47 49 -90 49 l-30
0 21 53 c64 164 198 414 306 571 29 43 52 80 51 82 -2 1 -25 -23 -51 -54 -82
-97 -196 -276 -269 -419 l-69 -137 6 129 c3 72 6 324 8 560 l2 430 -37 77
c-33 70 -78 128 -99 128 -5 0 -27 -33 -49 -72z m31 -707 c-22 -348 -42 -635
-45 -639 -3 -3 -9 -2 -12 1 -7 7 74 1251 83 1277 3 8 7 10 9 5 2 -6 -14 -295
-35 -644z m-591 -223 c57 -216 105 -399 108 -405 2 -7 -2 -13 -10 -13 -10 0
-41 109 -113 393 -54 215 -100 398 -103 405 -2 6 0 12 5 12 5 0 56 -177 113
-392z m251 -111 c19 -267 20 -321 4 -306 -6 7 -42 592 -37 602 2 5 6 7 8 5 2
-2 13 -138 25 -301z"/>
<path d="M12961 10344 c-185 -51 -344 -266 -390 -528 -7 -40 -11 -456 -11
-1230 0 -1270 -1 -1225 56 -1383 14 -40 50 -109 80 -154 l54 -81 -24 -91
c-117 -433 -69 -762 140 -963 30 -28 79 -65 109 -80 30 -16 55 -36 55 -44 0
-8 3 -25 6 -37 5 -19 2 -23 -15 -23 -20 0 -21 -5 -21 -115 l0 -115 473 0 473
0 53 -90 c47 -80 56 -90 82 -90 28 0 28 -1 31 -67 l3 -68 63 -3 62 -3 0 -392
c0 -301 -3 -396 -12 -406 -11 -11 -10 -12 2 -6 13 7 13 6 2 -7 -19 -23 -13
-644 6 -640 8 1 11 -2 7 -8 -3 -6 -11 -8 -16 -5 -5 4 -9 2 -9 -4 0 -5 -10 -13
-22 -17 -13 -4 -63 -26 -113 -50 -49 -23 -193 -91 -320 -151 -420 -198 -529
-271 -559 -374 -23 -77 -21 -101 7 -94 17 4 25 0 34 -20 6 -14 7 -23 2 -19
-13 8 -11 -3 6 -37 9 -16 30 -39 48 -49 33 -21 103 -28 92 -10 -3 6 1 7 10 4
33 -13 99 76 90 122 -2 10 -4 19 -5 19 -1 0 -3 8 -5 19 -2 10 -14 29 -26 42
-14 15 -19 28 -13 33 5 5 180 86 388 181 330 150 382 170 400 160 26 -14 155
-11 175 4 11 8 13 8 7 -1 -4 -7 -3 -13 3 -13 5 0 11 6 13 12 3 9 45 -6 134
-45 275 -124 379 -174 378 -183 -1 -5 -5 -91 -9 -191 l-7 -183 95 0 94 0 6 68
c4 37 7 96 7 132 0 85 7 95 51 76 19 -8 40 -25 48 -38 8 -13 21 -33 29 -45 8
-13 12 -23 9 -23 -3 0 -15 16 -27 35 -20 32 -44 44 -40 21 1 -5 -6 -13 -15
-18 -13 -8 -14 -12 -4 -24 10 -12 10 -15 -1 -12 -7 2 -14 -2 -17 -9 -2 -6 5
-13 17 -15 20 -3 20 -4 6 -23 -13 -16 -15 -17 -10 -2 3 9 1 17 -4 17 -6 0 -9
-12 -6 -26 5 -29 34 -77 42 -69 3 2 10 -2 17 -11 6 -9 31 -18 56 -21 79 -8
133 45 138 135 1 20 4 21 22 12 11 -7 24 -9 27 -5 11 10 -26 135 -50 167 -24
34 -103 88 -203 139 l-67 34 6 115 c3 63 10 180 15 260 6 80 29 485 51 900 22
415 43 779 46 808 l5 52 130 0 130 0 -8 -97 c-19 -225 -3 -1177 22 -1308 2
-11 4 -41 4 -68 l1 -47 297 5 298 4 82 478 c45 263 134 791 199 1173 64 382
118 696 119 698 3 3 203 52 214 52 5 0 11 -116 14 -257 11 -471 80 -970 223
-1613 32 -143 142 -577 150 -591 2 -3 25 -2 51 2 45 8 99 16 373 53 58 8 133
18 168 21 34 4 64 10 66 14 7 11 -172 2987 -184 3066 -19 127 -62 189 -142
209 -27 6 -28 8 -28 79 0 39 -3 109 -7 155 l-6 82 900 0 c495 0 903 3 906 7 4
3 1 13 -6 22 -10 14 -10 14 4 3 13 -10 15 -19 8 -40 -4 -15 -42 -925 -84
-2022 -41 -1097 -81 -2152 -89 -2345 -8 -192 -12 -353 -10 -357 3 -4 45 -8 94
-8 85 0 90 1 94 23 3 12 10 139 16 282 7 143 15 310 20 370 4 61 55 976 114
2035 58 1059 109 1949 112 1978 l5 52 889 0 c561 0 890 4 892 10 2 5 4 -34 6
-88 3 -99 192 -3685 217 -4117 8 -132 16 -276 17 -320 l3 -80 99 -3 99 -3 -7
143 c-3 79 -11 296 -16 483 -5 187 -39 1121 -74 2075 -36 954 -67 1773 -68
1819 l-3 83 147 -1 146 -2 -1 123 0 123 -7 -90 -6 -90 -2 88 -2 87 -3980 0
-3981 0 2 -120 2 -120 615 0 615 0 -7 -37 c-3 -21 -6 -48 -6 -60 0 -22 -3 -23
-107 -23 -60 0 -171 -5 -248 -10 -302 -23 -477 -54 -765 -137 -197 -57 -286
-62 -367 -20 -67 34 -117 78 -136 120 -12 27 -16 154 -23 807 -13 1141 -12
1250 14 1397 24 134 70 269 123 360 19 32 70 95 114 139 73 74 92 88 215 148
l135 66 -525 -1 c-427 -1 -535 -4 -579 -15z m956 -2679 c0 -8 -4 -12 -9 -9 -5
3 -6 10 -3 15 9 13 12 11 12 -6z m1159 -12 c-10 -11 -19 -7 -22 10 -2 15 0 16
12 6 8 -6 12 -14 10 -16z m4439 9 c5 -13 3 -14 -6 -5 -9 9 -16 7 -30 -10 -13
-17 -20 -19 -29 -10 -9 8 -8 11 6 10 12 -1 19 4 18 13 -1 22 33 23 41 2z
m-2350 -13 c-4 -5 -16 -14 -28 -19 -22 -11 -22 -11 -2 5 11 9 19 21 17 26 -1
6 2 8 8 4 6 -3 8 -11 5 -16z m2112 4 c0 -9 -4 -10 -14 -2 -7 6 -13 12 -13 14
0 1 6 2 13 2 8 0 14 -6 14 -14z m-3839 -18 c-3 -3 -9 2 -12 12 -6 14 -5 15 5
6 7 -7 10 -15 7 -18z m-43 -3 c-3 -3 -11 0 -18 7 -9 10 -8 11 6 5 10 -3 15 -9
12 -12z m2040 -11 c-3 -6 -11 -11 -16 -11 -5 0 -4 6 3 14 14 16 24 13 13 -3z
m-260 -128 c4 -62 3 -113 -1 -113 -5 0 -63 11 -128 25 -258 55 -576 97 -1011
135 -126 11 -318 30 -425 42 l-195 23 870 5 c479 3 873 3 876 0 4 -3 10 -56
14 -117z m-4175 -664 c19 -5 128 -9 242 -9 l208 0 6 -27 c28 -128 85 -237 166
-320 29 -29 50 -54 47 -56 -2 -2 -53 -19 -114 -36 -223 -64 -412 -186 -476
-305 -13 -25 -27 -46 -31 -46 -18 0 -109 102 -132 148 -70 138 -75 334 -15
585 20 81 23 87 43 81 11 -4 37 -11 56 -15z m2609 -676 c-9 -49 -18 -90 -18
-92 -1 -2 -19 20 -40 51 -22 30 -56 67 -76 83 -48 36 -35 45 71 45 l81 0 -18
-87z m-584 -765 c-13 -237 -65 -1637 -65 -1752 0 -130 -6 -170 -24 -162 -30
13 -417 196 -459 217 l-47 24 -6 732 -6 732 63 3 64 3 3 68 c3 66 3 67 30 67
24 0 34 12 81 90 l53 90 160 0 159 0 -6 -112z m-735 -1027 c7 -14 7 -22 -2
-27 -6 -4 -8 -3 -5 3 4 6 0 14 -9 17 -8 3 -12 10 -9 16 9 14 13 13 25 -9z m20
-626 c0 -2 -6 -7 -12 -11 -7 -4 -10 -4 -6 1 4 4 0 14 -10 22 -15 13 -15 13 6
3 12 -6 22 -13 22 -15z m53 -8 c-5 -11 -7 -11 -28 1 -19 11 -18 12 5 8 14 -1
24 -6 23 -9z m-5 -231 c-7 -8 -17 -12 -22 -9 -4 3 -2 9 5 14 22 13 31 11 17
-5z m-1028 -405 c-12 -23 -37 -34 -46 -19 -4 6 -3 8 4 4 14 -8 44 22 36 36 -4
7 -2 8 4 4 8 -5 9 -13 2 -25z m2054 -2 c-3 -5 -10 -7 -15 -3 -5 3 -7 10 -3 15
3 5 10 7 15 3 5 -3 7 -10 3 -15z m-160 -17 c3 -5 -1 -9 -9 -9 -8 0 -12 4 -9 9
3 4 7 8 9 8 2 0 6 -4 9 -8z m186 -6 c0 -2 -8 -10 -17 -17 -16 -13 -17 -12 -4
4 13 16 21 21 21 13z m-2130 -69 c0 -4 -6 -2 -14 5 -8 7 -12 17 -9 22 5 8 23
-12 23 -27z m2122 -9 c-2 -10 -6 -18 -7 -18 -1 0 -5 8 -7 18 -3 11 0 19 7 19
7 0 10 -8 7 -19z m-1934 -33 c-3 -3 -9 2 -12 12 -6 14 -5 15 5 6 7 -7 10 -15
7 -18z m-28 -3 c0 -5 -7 -9 -15 -9 -8 0 -12 4 -9 9 3 4 9 8 15 8 5 0 9 -4 9
-8z m1924 0 c3 -5 -1 -9 -9 -9 -8 0 -12 4 -9 9 3 4 7 8 9 8 2 0 6 -4 9 -8z
m-2040 -10 c2 -4 -5 -9 -17 -9 -17 -2 -19 0 -7 7 18 12 18 12 24 2z m62 -18
c1 -9 0 -13 -4 -10 -3 4 -7 14 -8 22 -1 9 0 13 4 10 3 -4 7 -14 8 -22z m-16
-19 c14 -19 14 -19 -2 -6 -10 7 -18 18 -18 24 0 6 1 8 3 6 1 -2 9 -13 17 -24z
m75 15 c-3 -5 -12 -10 -18 -10 -7 0 -6 4 3 10 19 12 23 12 15 0z m1819 -5 c-4
-8 -11 -12 -16 -9 -6 4 -5 10 3 15 19 12 19 11 13 -6z m46 -11 c0 -8 -19 -13
-24 -6 -3 5 1 9 9 9 8 0 15 -2 15 -3z"/>
<path d="M14891 9970 c-35 -27 -67 -48 -70 -46 -3 2 -39 22 -79 45 -41 24 -75
41 -77 39 -1 -1 26 -64 62 -138 l65 -135 -21 -364 c-11 -201 -19 -366 -18
-368 2 -1 44 23 95 53 77 46 92 59 92 80 0 14 -16 150 -36 303 l-35 278 45
148 c26 81 45 149 43 151 -1 2 -31 -19 -66 -46z"/>
<path d="M16441 9489 c6 -3 -5 -61 -27 -140 -36 -127 -260 -917 -292 -1025
l-14 -51 -297 -12 c-163 -6 -317 -14 -343 -17 l-48 -6 0 -44 0 -44 1264 0
c1196 0 1265 1 1270 18 3 9 84 307 181 662 96 355 177 651 180 657 3 10 -193
12 -939 10 -519 -1 -940 -5 -935 -8z"/>
<path d="M9675 8870 c-105 -19 -167 -51 -251 -133 -50 -47 -53 -49 -93 -42
-58 10 -133 -11 -176 -48 -29 -25 -40 -45 -51 -92 -7 -33 -14 -77 -14 -97 l0
-38 -747 0 c-723 0 -749 -1 -777 -19 -16 -11 -35 -30 -42 -43 -11 -18 -13
-284 -14 -1320 l0 -1296 26 -31 c14 -17 42 -35 62 -41 24 -6 461 -10 1282 -9
l1245 1 -150 24 c-82 13 -240 42 -350 64 -110 23 -249 46 -309 51 l-110 10
-83 -32 -83 -32 -148 12 c-192 16 -194 17 -227 116 -25 75 -29 109 -13 123 8
6 98 21 199 32 101 12 187 22 191 23 4 1 -15 17 -43 35 l-49 32 0 -30 0 -30
-600 0 -600 0 0 870 0 870 189 0 c152 0 190 3 194 14 3 8 30 22 59 31 29 10
62 24 73 31 11 8 27 14 37 14 26 0 58 -36 58 -65 l0 -25 295 0 295 0 0 -822 0
-823 53 -1 c55 0 154 -39 220 -86 30 -21 42 -23 192 -23 88 0 343 4 566 9
l406 9 -23 111 c-12 61 -22 112 -21 112 5 5 367 94 379 94 25 0 53 -211 53
-400 0 -158 -1 -168 -27 -222 -26 -57 -48 -75 -103 -89 -16 -4 196 -7 472 -6
490 2 502 2 530 23 15 11 36 36 45 55 17 32 18 114 17 1299 0 953 -3 1274 -12
1300 -7 19 -27 44 -46 57 l-34 23 -716 0 -716 1 -42 72 c-24 40 -59 105 -79
145 -45 92 -128 183 -191 210 -59 25 -133 33 -198 22z m-135 -620 c122 -50
223 -72 336 -73 l101 -1 13 -118 c7 -65 15 -116 18 -114 2 3 12 51 22 107 18
107 31 129 76 129 13 0 35 -11 50 -23 23 -20 28 -34 32 -83 7 -109 -63 -233
-151 -264 -32 -12 -35 -18 -51 -84 -9 -39 -28 -95 -41 -124 -22 -47 -31 -56
-84 -80 l-60 -27 -1 -62 c0 -50 3 -63 15 -63 8 0 15 -1 15 -3 0 -2 -34 -66
-76 -143 -41 -76 -88 -167 -104 -200 -15 -34 -32 -64 -37 -67 -6 -4 -59 87
-120 201 -93 176 -107 207 -91 210 15 3 18 13 18 66 l0 62 -56 27 c-47 23 -58
35 -79 79 -14 29 -32 85 -41 125 -15 64 -21 73 -48 85 -47 19 -95 66 -124 122
-21 41 -26 65 -27 123 0 62 3 75 24 97 28 29 66 34 97 11 15 -10 23 -30 28
-67 8 -64 25 -118 36 -118 4 0 36 71 70 158 86 216 73 197 123 168 24 -14 76
-39 117 -56z"/>
<path d="M14931 8400 c-47 -38 -109 -86 -138 -107 -47 -33 -52 -41 -46 -63 4
-14 7 -37 7 -52 l1 -28 157 0 158 0 -5 28 c-7 38 -35 264 -35 279 0 21 -11 15
-99 -57z"/>
<path d="M7840 7620 c0 -7 175 -10 505 -10 330 0 505 3 505 10 0 7 -175 10
-505 10 -330 0 -505 -3 -505 -10z"/>
<path d="M7840 7540 c0 -7 175 -10 505 -10 330 0 505 3 505 10 0 7 -175 10
-505 10 -330 0 -505 -3 -505 -10z"/>
<path d="M7840 7455 c0 -13 63 -15 505 -15 442 0 505 2 505 15 0 13 -63 15
-505 15 -442 0 -505 -2 -505 -15z"/>
<path d="M7840 7370 c0 -7 175 -10 505 -10 330 0 505 3 505 10 0 7 -175 10
-505 10 -330 0 -505 -3 -505 -10z"/>
<path d="M7840 7285 c0 -13 63 -15 505 -15 442 0 505 2 505 15 0 13 -63 15
-505 15 -442 0 -505 -2 -505 -15z"/>
<path d="M7840 7200 c0 -7 175 -10 505 -10 330 0 505 3 505 10 0 7 -175 10
-505 10 -330 0 -505 -3 -505 -10z"/>
<path d="M7840 7120 c0 -7 175 -10 505 -10 330 0 505 3 505 10 0 7 -175 10
-505 10 -330 0 -505 -3 -505 -10z"/>
<path d="M7840 7035 c0 -13 63 -15 505 -15 442 0 505 2 505 15 0 13 -63 15
-505 15 -442 0 -505 -2 -505 -15z"/>
<path d="M7840 6950 c0 -7 175 -10 505 -10 330 0 505 3 505 10 0 7 -175 10
-505 10 -330 0 -505 -3 -505 -10z"/>
<path d="M7840 6865 c0 -13 63 -15 505 -15 442 0 505 2 505 15 0 13 -63 15
-505 15 -442 0 -505 -2 -505 -15z"/>
<path d="M7840 6780 c0 -7 175 -10 505 -10 330 0 505 3 505 10 0 7 -175 10
-505 10 -330 0 -505 -3 -505 -10z"/>
<path d="M7840 6700 c0 -7 175 -10 505 -10 330 0 505 3 505 10 0 7 -175 10
-505 10 -330 0 -505 -3 -505 -10z"/>
<path d="M7840 6615 c0 -13 63 -15 505 -15 442 0 505 2 505 15 0 13 -63 15
-505 15 -442 0 -505 -2 -505 -15z"/>
<path d="M7840 6530 c0 -7 175 -10 505 -10 330 0 505 3 505 10 0 7 -175 10
-505 10 -330 0 -505 -3 -505 -10z"/>
<path d="M7840 6445 c0 -13 63 -15 505 -15 442 0 505 2 505 15 0 13 -63 15
-505 15 -442 0 -505 -2 -505 -15z"/>
<path d="M7840 6360 c0 -7 175 -10 505 -10 330 0 505 3 505 10 0 7 -175 10
-505 10 -330 0 -505 -3 -505 -10z"/>
<path d="M7840 6280 c0 -7 175 -10 505 -10 330 0 505 3 505 10 0 7 -175 10
-505 10 -330 0 -505 -3 -505 -10z"/>
<path d="M15482 3801 c-61 -76 -92 -159 -99 -267 -8 -113 14 -134 238 -224 68
-28 203 -92 299 -143 303 -161 364 -181 696 -228 207 -30 229 -31 267 -18 57
19 73 53 57 119 -26 110 -85 164 -300 280 -120 64 -123 67 -243 201 -67 75
-153 173 -191 218 -37 44 -72 81 -76 81 -4 0 -13 -6 -19 -14 -6 -8 -35 -24
-64 -37 -43 -20 -69 -23 -157 -24 -127 0 -218 25 -301 83 l-54 38 -53 -65z"/>
<path d="M17728 3775 c-30 -35 -114 -79 -179 -94 -97 -23 -245 -9 -321 30 -21
11 -39 19 -41 19 -2 0 -18 -31 -36 -69 -50 -108 -66 -255 -37 -326 25 -60 59
-73 306 -120 47 -9 168 -40 270 -70 243 -70 326 -85 475 -85 116 0 330 13 424
26 114 15 121 129 12 227 -54 48 -75 58 -227 105 -197 61 -156 36 -500 298
l-119 90 -27 -31z"/>
<path d="M15570 1535 c-10 -12 -10 -19 -2 -27 22 -22 12 -37 -29 -48 -43 -12
-50 -37 -8 -32 13 1 55 6 93 10 80 8 101 29 34 34 -42 3 -43 4 -43 38 0 39
-23 52 -45 25z"/>
<path d="M15786 1412 c-3 -5 11 -24 31 -43 19 -19 43 -46 52 -61 12 -18 21
-24 31 -18 11 7 11 13 -3 34 -22 33 -21 43 3 49 24 6 27 35 4 44 -11 4 -23 -2
-33 -16 l-17 -22 -19 20 c-19 22 -40 27 -49 13z"/>
<path d="M16144 1396 c-21 -17 -29 -35 -33 -72 -5 -44 -9 -49 -33 -52 -25 -3
-28 -8 -28 -38 0 -31 2 -34 30 -34 l30 0 0 -105 0 -105 35 0 35 0 0 105 0 105
45 0 c45 0 45 0 45 34 0 34 -1 35 -42 38 -41 3 -43 5 -41 32 3 36 19 48 56 42
25 -5 27 -3 27 28 0 38 -12 46 -65 46 -21 0 -44 -9 -61 -24z"/>
<path d="M17450 1400 c-23 -23 -24 -33 -10 -61 12 -22 59 -26 78 -7 17 17 15
54 -4 72 -21 21 -40 20 -64 -4z"/>
<path d="M15525 1386 c-27 -13 -60 -34 -72 -47 -36 -39 -63 -110 -63 -166 0
-51 1 -52 38 -64 53 -18 224 -15 301 5 36 9 83 27 105 39 37 21 41 26 38 57
-15 155 -197 247 -347 176z m70 -111 c14 -13 25 -35 25 -47 0 -56 -61 -93
-106 -63 -37 24 -48 52 -34 86 23 54 75 65 115 24z m173 9 c26 -18 28 -50 5
-76 -22 -25 -59 -23 -77 4 -21 30 -20 44 4 68 24 24 38 25 68 4z"/>
<path d="M17570 1200 l0 -210 40 0 40 0 0 52 0 52 53 -52 c49 -49 56 -52 102
-52 l49 0 -40 43 c-21 23 -52 56 -68 74 l-28 31 68 66 69 65 -48 1 c-44 0 -54
-5 -100 -45 l-52 -45 -3 115 -3 115 -39 0 -40 0 0 -210z"/>
<path d="M12390 1310 c0 -38 -3 -70 -7 -70 -3 0 -14 7 -23 15 -27 25 -83 29
-122 11 -48 -23 -71 -68 -71 -135 0 -68 22 -115 65 -137 37 -19 100 -14 127
10 22 20 31 20 31 1 0 -8 9 -15 20 -15 19 0 20 7 20 195 0 188 -1 195 -20 195
-18 0 -20 -7 -20 -70z m-31 -96 c28 -23 31 -32 31 -79 0 -68 -6 -82 -42 -101
-84 -44 -161 41 -128 140 21 65 88 84 139 40z"/>
<path d="M14340 1310 l0 -70 -32 20 c-68 42 -144 14 -173 -64 -53 -138 59
-265 173 -196 26 16 32 17 32 5 0 -9 10 -15 25 -15 l25 0 0 195 0 195 -25 0
c-24 0 -25 -2 -25 -70z m-18 -97 c28 -25 26 -143 -3 -169 -29 -26 -93 -25
-120 3 -27 26 -36 106 -17 143 27 50 97 62 140 23z"/>
<path d="M14600 1185 c0 -188 1 -195 20 -195 11 0 20 7 20 15 0 12 6 11 33 -5
91 -56 187 11 187 130 0 119 -96 186 -187 130 l-33 -20 0 70 c0 63 -2 70 -20
70 -19 0 -20 -7 -20 -195z m182 26 c28 -25 32 -34 32 -81 0 -47 -4 -56 -32
-81 -38 -34 -65 -36 -109 -9 -32 19 -33 21 -33 90 0 69 1 71 33 90 44 27 71
25 109 -9z"/>
<path d="M15392 1356 c-20 -27 -42 -34 -42 -15 0 6 -10 9 -22 7 -30 -4 -29
-30 0 -43 18 -8 22 -15 17 -35 -11 -42 -11 -44 6 -47 11 -3 18 5 22 26 4 17
19 49 33 71 19 28 24 44 17 51 -7 7 -17 2 -31 -15z"/>
<path d="M13074 1355 c-8 -21 2 -45 19 -45 20 0 40 27 33 45 -7 19 -45 20 -52
0z"/>
<path d="M12563 1264 c-47 -24 -73 -71 -73 -134 0 -115 98 -180 204 -136 38
16 53 33 39 47 -6 6 -21 4 -39 -6 -16 -8 -43 -15 -61 -15 -40 0 -93 43 -93 76
0 24 0 24 110 24 l110 0 0 28 c0 96 -108 160 -197 116z m121 -46 c13 -13 27
-33 31 -45 6 -23 5 -23 -89 -23 l-95 0 11 30 c21 61 95 80 142 38z"/>
<path d="M12850 1267 c-34 -17 -55 -57 -46 -90 7 -30 40 -49 113 -67 52 -13
69 -38 47 -68 -19 -28 -77 -29 -120 -3 -29 18 -31 18 -42 1 -19 -30 29 -55
106 -55 57 0 66 3 88 28 30 35 31 78 3 103 -11 10 -48 28 -82 39 -64 21 -81
42 -57 70 17 20 80 19 109 -1 19 -14 25 -14 32 -3 14 22 11 26 -31 43 -48 19
-86 20 -120 3z"/>
<path d="M13255 1270 c-46 -18 -69 -58 -73 -124 -7 -102 34 -157 118 -158 28
0 52 7 71 21 l29 22 0 -31 c0 -22 -10 -41 -30 -62 -28 -27 -36 -30 -76 -25
-25 2 -53 12 -64 22 -17 16 -19 16 -29 -3 -9 -17 -6 -23 17 -38 33 -23 128
-25 167 -4 48 26 55 54 55 225 0 148 -1 155 -20 155 -11 0 -20 -7 -20 -15 0
-12 -6 -12 -37 5 -39 21 -74 24 -108 10z m113 -50 c31 -19 32 -22 32 -83 0
-55 -3 -67 -25 -87 -29 -28 -83 -32 -111 -9 -51 42 -53 132 -2 174 36 30 62
31 106 5z"/>
<path d="M13598 1262 c-30 -16 -38 -17 -38 -6 0 8 -9 14 -20 14 -19 0 -20 -7
-20 -140 0 -133 1 -140 20 -140 19 0 20 7 20 105 l0 105 33 20 c38 24 66 25
93 6 16 -12 19 -29 22 -125 3 -101 5 -111 23 -111 18 0 19 9 19 119 0 98 -3
122 -18 141 -25 31 -87 36 -134 12z"/>
<path d="M13883 1264 c-47 -24 -73 -71 -73 -134 0 -115 98 -180 204 -136 38
16 53 33 39 47 -6 6 -21 4 -39 -6 -16 -8 -43 -15 -61 -15 -40 0 -93 43 -93 76
0 24 0 24 110 24 l110 0 0 28 c0 96 -108 160 -197 116z m121 -46 c13 -13 27
-33 31 -45 6 -23 5 -23 -89 -23 l-95 0 11 30 c21 61 95 80 142 38z"/>
<path d="M16402 1264 c-12 -8 -22 -10 -22 -5 0 6 -18 11 -40 11 l-40 0 0 -140
0 -140 40 0 40 0 0 86 c0 47 5 94 10 104 6 11 26 22 45 26 35 6 71 46 60 64
-10 15 -68 12 -93 -6z"/>
<path d="M16553 1260 c-49 -29 -68 -65 -68 -130 0 -65 19 -101 68 -130 40 -25
116 -26 163 -4 38 18 42 33 16 58 -17 15 -22 15 -55 1 -47 -20 -106 1 -107 37
0 4 44 9 98 10 l97 3 3 28 c5 43 -33 112 -72 131 -46 22 -104 20 -143 -4z
m125 -77 l14 -23 -61 0 c-63 0 -72 7 -45 35 23 22 73 16 92 -12z"/>
<path d="M16862 1263 c-94 -46 -95 -215 -1 -265 46 -25 125 -24 168 3 l33 20
-21 23 c-21 22 -24 23 -61 10 -46 -16 -83 -6 -100 26 -10 20 -8 20 90 20 l100
0 0 43 c0 107 -108 170 -208 120z m122 -75 c15 -25 5 -29 -58 -26 l-57 3 17
23 c12 18 24 22 51 20 20 -2 41 -10 47 -20z"/>
<path d="M17208 1264 c-16 -8 -28 -10 -28 -4 0 5 -16 10 -35 10 l-35 0 0 -200
0 -200 35 0 35 0 0 70 0 71 32 -17 c67 -35 153 -1 184 73 54 126 -73 260 -188
197z m93 -73 c18 -14 24 -29 24 -61 0 -32 -6 -47 -24 -61 -43 -35 -104 -15
-116 39 -16 76 59 130 116 83z"/>
<path d="M13080 1130 c0 -133 1 -140 20 -140 19 0 20 7 20 140 0 133 -1 140
-20 140 -19 0 -20 -7 -20 -140z"/>
<path d="M14880 1266 c0 -2 25 -64 55 -137 30 -73 55 -140 55 -150 0 -27 -41
-71 -61 -66 -17 5 -34 -25 -21 -37 10 -10 42 -6 71 8 27 14 54 71 178 374 3 8
-4 12 -20 12 -22 0 -29 -11 -67 -102 -23 -57 -45 -106 -49 -110 -3 -4 -26 42
-49 103 -39 97 -47 109 -68 109 -13 0 -24 -2 -24 -4z"/>
<path d="M17440 1130 l0 -140 40 0 40 0 0 140 0 140 -40 0 -40 0 0 -140z"/>
<path d="M15856 1131 c-11 -17 -127 -51 -212 -61 -54 -7 -105 -7 -150 -1 -37
6 -71 8 -74 5 -10 -11 89 -90 127 -102 90 -27 178 -11 241 44 40 34 89 110 79
121 -3 2 -8 0 -11 -6z"/>
</g>
</svg>
